<?xml version="1.0" encoding="UTF-8"?>
<svg width="137pt" height="40pt" version="1.2" viewBox="0 0 137 40" xmlns="http://www.w3.org/2000/svg" xmlns:cc="http://creativecommons.org/ns#" xmlns:dc="http://purl.org/dc/elements/1.1/" xmlns:rdf="http://www.w3.org/1999/02/22-rdf-syntax-ns#">
<metadata>
<rdf:RDF>
<cc:Work rdf:about="">
<dc:format>image/svg+xml</dc:format>
<dc:type rdf:resource="http://purl.org/dc/dcmitype/StillImage"/>
<dc:title/>
</cc:Work>
</rdf:RDF>
</metadata>
<g>
<path d="m132 40h-127c-2.75 0-5-2.25-5-5v-30c0-2.75 2.25-5 5-5h127c2.75 0 5 2.25 5 5v30c0 2.75-2.25 5-5 5" fill="#0f0c0c"/>
<path d="m132 0h-127c-2.75 0-5 2.25-5 5v30c0 2.75 2.25 5 5 5h127c2.75 0 5-2.25 5-5v-30c0-2.75-2.25-5-5-5zm0 0.80078c2.3164 0 4.1992 1.8828 4.1992 4.1992v30c0 2.3164-1.8828 4.1992-4.1992 4.1992h-127c-2.3164 0-4.1992-1.8828-4.1992-4.1992v-30c0-2.3164 1.8828-4.1992 4.1992-4.1992h127" fill="#a1a1a1"/>
<path d="m40.566 30.246c-3.0977 2.2852-7.5859 3.5-11.453 3.5-5.418 0-10.297-2.0039-13.988-5.3359-0.28906-0.26172-0.03125-0.62109 0.31641-0.41797 3.9844 2.3203 8.9102 3.7148 13.996 3.7148 3.4336 0 7.207-0.71094 10.68-2.1836 0.52344-0.22266 0.96094 0.34375 0.44922 0.72266" fill="#fff" fill-rule="evenodd"/>
<path d="m41.855 28.773c-0.39453-0.50391-2.6172-0.23828-3.6172-0.11719-0.30078 0.03516-0.34766-0.23047-0.07813-0.42188 1.7734-1.2461 4.6797-0.88672 5.0156-0.46875 0.33984 0.42188-0.08984 3.332-1.75 4.7227-0.25391 0.21484-0.5 0.10156-0.38672-0.18359 0.375-0.93359 1.2109-3.0234 0.81641-3.5312" fill="#fff" fill-rule="evenodd"/>
<path d="m38.309 19.441v-1.2109c0-0.18359 0.14062-0.30859 0.30859-0.30859h5.4219c0.17188 0 0.3125 0.125 0.3125 0.30469v1.0391c-0.0039 0.17578-0.14844 0.40234-0.41016 0.76172l-2.8086 4.0117c1.043-0.02734 2.1445 0.12891 3.0938 0.66406 0.21484 0.11719 0.26953 0.29688 0.28906 0.46875v1.293c0 0.17969-0.19531 0.38281-0.40234 0.27734-1.668-0.875-3.8828-0.96875-5.7266 0.01172-0.19141 0.097654-0.38672-0.10547-0.38672-0.28125v-1.2266c0-0.19922 0.0039-0.53516 0.20312-0.83203l3.2539-4.6719h-2.8359c-0.17188 0-0.3125-0.12109-0.3125-0.30078" fill="#fff" fill-rule="evenodd"/>
<path d="m18.531 26.996h-1.6523c-0.15625-0.01172-0.28125-0.12891-0.29297-0.27734v-8.4688c0-0.16797 0.14062-0.30469 0.32031-0.30469h1.5352c0.16016 0.0078 0.28906 0.12891 0.29688 0.28516v1.1055h0.03516c0.39844-1.0703 1.1523-1.5703 2.168-1.5703 1.0312 0 1.6797 0.5 2.1406 1.5703 0.40234-1.0703 1.3086-1.5703 2.2812-1.5703 0.69141 0 1.4453 0.28516 1.9102 0.92969 0.51953 0.71094 0.41406 1.7461 0.41406 2.6523v5.3438c0 0.16797-0.14453 0.30469-0.32031 0.30469h-1.6484c-0.16406-0.01172-0.29297-0.14062-0.29297-0.30469l-0.0039-4.4883c0-0.35547 0.03125-1.2461-0.04297-1.5859-0.125-0.57031-0.49219-0.73047-0.97266-0.73047-0.39844 0-0.81641 0.26953-0.98438 0.69531-0.16797 0.42969-0.15234 1.1406-0.15234 1.6211v4.4883c0 0.16797-0.14453 0.30469-0.32031 0.30469h-1.6484c-0.16406-0.01172-0.29688-0.14062-0.29688-0.30469v-4.4883c0-0.94531 0.15234-2.332-1.0156-2.332-1.1875 0-1.1406 1.3516-1.1406 2.332v4.4883c0 0.16797-0.14062 0.30469-0.31641 0.30469" fill="#fff" fill-rule="evenodd"/>
<path d="m49.035 19.496c-1.2188 0-1.2969 1.6562-1.2969 2.6875 0 1.0352-0.01172 3.2422 1.2812 3.2422 1.2773 0 1.3398-1.7812 1.3398-2.8672 0-0.71094-0.03125-1.5664-0.24609-2.2422-0.1875-0.58984-0.55469-0.82031-1.0781-0.82031zm-0.01563-1.7305c2.4492 0 3.7695 2.1055 3.7695 4.7773 0 2.582-1.4609 4.6328-3.7695 4.6328-2.4023 0-3.7109-2.1055-3.7109-4.7227 0-2.6367 1.3242-4.6875 3.7109-4.6875" fill="#fff" fill-rule="evenodd"/>
<path d="m55.965 26.996h-1.6406c-0.16797-0.01172-0.29688-0.14062-0.29688-0.30469l-0.0039-8.4688c0.01562-0.15625 0.15234-0.27734 0.31641-0.27734h1.5312c0.14453 0.0078 0.26172 0.10547 0.29297 0.23828v1.293h0.03125c0.46094-1.1562 1.1094-1.7109 2.25-1.7109 0.73828 0 1.4609 0.26953 1.9219 1 0.43359 0.67578 0.43359 1.8164 0.43359 2.6367v5.3281c-0.01953 0.14844-0.15234 0.26562-0.31641 0.26562h-1.6562c-0.15235-0.011719-0.27344-0.12109-0.29298-0.26562v-4.5977c0-0.92578 0.10938-2.2812-1.0312-2.2812-0.39844 0-0.76953 0.26563-0.95312 0.67578-0.23047 0.51953-0.26172 1.0352-0.26172 1.6055v4.5586c-0.0039 0.16797-0.14844 0.30469-0.32422 0.30469" fill="#fff" fill-rule="evenodd"/>
<path d="m35.648 26.973c-0.10938 0.10156-0.26563 0.10547-0.38672 0.03906-0.55078-0.45312-0.64844-0.66406-0.94922-1.0977-0.90234 0.92188-1.543 1.1992-2.7188 1.1992-1.3867 0-2.4688-0.85547-2.4688-2.5703 0-1.3398 0.72656-2.25 1.7578-2.6992 0.89844-0.39062 2.1484-0.46094 3.1016-0.57031v-0.21484c0-0.39062 0.03125-0.85547-0.19922-1.1953-0.19922-0.30469-0.58594-0.42969-0.92578-0.42969-0.62891 0-1.1875 0.32422-1.3242 0.99219-0.03125 0.14844-0.13672 0.29688-0.28906 0.30469l-1.5977-0.17578c-0.13672-0.02734-0.28516-0.13672-0.24609-0.34375 0.36719-1.9414 2.1211-2.5273 3.6875-2.5273 0.80469 0 1.8516 0.21484 2.4844 0.82422 0.80469 0.75 0.72656 1.75 0.72656 2.8359v2.5703c0 0.77344 0.32031 1.1133 0.62109 1.5312 0.10938 0.14844 0.12891 0.32813-0.0039 0.4375-0.33594 0.28125-0.93359 0.80078-1.2656 1.0938zm-1.6641-4.0195c0 0.64062 0.01953 1.1797-0.30859 1.75-0.26172 0.46484-0.67578 0.75-1.1406 0.75-0.63281 0-1.0039-0.48438-1.0039-1.1953 0-1.4062 1.2617-1.6641 2.4531-1.6641v0.35938" fill="#fff" fill-rule="evenodd"/>
<path d="m14.023 26.973c-0.10938 0.10156-0.26563 0.10547-0.39063 0.03906-0.54687-0.45312-0.64453-0.66406-0.94531-1.0977-0.90625 0.92188-1.5469 1.1992-2.7188 1.1992-1.3867 0-2.4688-0.85547-2.4688-2.5703 0-1.3398 0.72656-2.25 1.7578-2.6992 0.89844-0.39062 2.1484-0.46094 3.1016-0.57031v-0.21484c0-0.39062 0.03125-0.85547-0.19922-1.1953-0.19922-0.30469-0.58594-0.42969-0.92578-0.42969-0.62891 0-1.1875 0.32422-1.3242 0.99219-0.03125 0.14844-0.14062 0.29688-0.28906 0.30469l-1.5977-0.17578c-0.13672-0.02734-0.28516-0.13672-0.24609-0.34375 0.36719-1.9414 2.1172-2.5273 3.6875-2.5273 0.80469 0 1.8516 0.21484 2.4844 0.82422 0.80469 0.75 0.72656 1.75 0.72656 2.8359v2.5703c0 0.77344 0.32031 1.1133 0.62109 1.5312 0.10547 0.14844 0.12891 0.32813-0.0039 0.4375-0.33594 0.28125-0.9375 0.80078-1.2656 1.0938zm-1.6641-4.0195c0 0.64062 0.01563 1.1797-0.30859 1.75-0.26172 0.46484-0.67969 0.75-1.1406 0.75-0.63281 0-1.0039-0.48438-1.0039-1.1953 0-1.4062 1.2617-1.6641 2.4531-1.6641v0.35938" fill="#fff" fill-rule="evenodd"/>
<path d="m68.059 25.645c0.33203 0 0.68359-0.07031 1.0508-0.21484 0.36719-0.14063 0.72266-0.34766 1.0664-0.60938v-1.6562c-0.60547-0.125-1.1484-0.1875-1.6172-0.1875-1.1953 0-1.793 0.46484-1.793 1.3945 0 0.40234 0.11719 0.71484 0.34375 0.9375 0.23047 0.22656 0.54688 0.33594 0.94922 0.33594zm-0.57031 1.4492c-0.80078 0-1.4531-0.24219-1.9531-0.72266-0.5-0.48438-0.75-1.1094-0.75-1.8789 0-0.85156 0.30859-1.5273 0.92188-2.0312 0.61328-0.50781 1.4375-0.75781 2.4727-0.75781 0.60937 0 1.2734 0.08594 1.9961 0.25781v-1.0195c0-0.58203-0.125-0.99219-0.37891-1.2227-0.25-0.22656-0.69531-0.34375-1.3242-0.34375-0.37891 0-0.80078 0.03906-1.2578 0.11328-0.46094 0.07422-0.89453 0.17969-1.3086 0.31641-0.11719 0.03516-0.21484 0.05469-0.29297 0.05469-0.14844 0-0.22266-0.10938-0.22266-0.32812v-0.63672c0-0.16016 0.01953-0.27734 0.06641-0.34375 0.04687-0.07031 0.16797-0.14453 0.36328-0.22656 0.89453-0.34375 1.8867-0.51562 2.9805-0.51562 1.125 0 1.9531 0.23047 2.4844 0.6875 0.53906 0.46094 0.80469 1.1797 0.80469 2.1562v5.8047c0 0.25-0.125 0.37891-0.37891 0.37891h-0.91406c-0.25391 0-0.39453-0.11719-0.42969-0.34766l-0.08594-0.49609c-0.40234 0.34375-0.84766 0.61328-1.3359 0.80859-0.48828 0.19531-0.97266 0.29297-1.457 0.29297" fill="#fff"/>
<path d="m78.004 25.422c0.73438 0 1.2773-0.25 1.6367-0.75 0.35547-0.5 0.53125-1.2578 0.53125-2.2812 0-1.0117-0.17578-1.7617-0.52344-2.25-0.35156-0.48828-0.89453-0.73047-1.6289-0.73047-0.74609 0-1.4336 0.21875-2.0664 0.65625v4.6836c0.64062 0.44922 1.3281 0.67188 2.0508 0.67188zm-3.707 4.9609c-0.25 0-0.37891-0.125-0.37891-0.37891v-11.559c0-0.25391 0.12891-0.37891 0.37891-0.37891h0.94922c0.25391 0 0.40234 0.11328 0.44922 0.34375l0.10156 0.53516c0.40234-0.36719 0.84766-0.64844 1.3359-0.84375 0.48828-0.19531 0.99609-0.29297 1.5234-0.29297 1.0898 0 1.9609 0.40625 2.6094 1.2227s0.97266 1.9102 0.97266 3.2891c0 0.95313-0.15625 1.7852-0.47266 2.5-0.31641 0.71094-0.75391 1.2578-1.3164 1.6367-0.5625 0.37891-1.207 0.56641-1.9297 0.56641-0.48438 0-0.94531-0.08203-1.3945-0.25-0.44922-0.16406-0.83984-0.39844-1.1719-0.69531v3.9258c0 0.25391-0.125 0.37891-0.37891 0.37891h-1.2773" fill="#fff"/>
<path d="m87.785 25.422c0.73828 0 1.2812-0.25 1.6367-0.75 0.35938-0.5 0.53516-1.2578 0.53516-2.2812 0-1.0117-0.17578-1.7617-0.52734-2.25-0.34766-0.48828-0.89063-0.73047-1.625-0.73047-0.74609 0-1.4375 0.21875-2.0703 0.65625v4.6836c0.64453 0.44922 1.3281 0.67188 2.0508 0.67188zm-3.7031 4.9609c-0.25 0-0.37891-0.125-0.37891-0.37891v-11.559c0-0.25391 0.12891-0.37891 0.37891-0.37891h0.94922c0.25 0 0.40234 0.11328 0.44531 0.34375l0.10547 0.53516c0.40234-0.36719 0.84766-0.64844 1.3359-0.84375 0.48828-0.19531 0.99609-0.29297 1.5234-0.29297 1.0898 0 1.9609 0.40625 2.6094 1.2227 0.64844 0.81641 0.97266 1.9102 0.97266 3.2891 0 0.95313-0.15625 1.7852-0.47266 2.5-0.31641 0.71094-0.75781 1.2578-1.3203 1.6367-0.5625 0.37891-1.2031 0.56641-1.9258 0.56641-0.48438 0-0.94922-0.08203-1.3984-0.25-0.44531-0.16406-0.83594-0.39844-1.1719-0.69531v3.9258c0 0.25391-0.125 0.37891-0.37891 0.37891h-1.2734" fill="#fff"/>
<path d="m95.836 27.094c-0.90625 0-1.7461-0.14844-2.5156-0.44922-0.18359-0.07031-0.30078-0.14062-0.35156-0.21484-0.05469-0.07422-0.07813-0.19922-0.07813-0.37109v-0.62109c0-0.22656 0.07813-0.34375 0.24219-0.34375 0.07813 0 0.23828 0.03516 0.48047 0.10547 0.81641 0.23047 1.5508 0.34375 2.207 0.34375 0.57422 0 0.99219-0.08984 1.2578-0.26562 0.26172-0.17969 0.39453-0.45312 0.39453-0.82031 0-0.25391-0.07813-0.45703-0.24219-0.60938-0.16016-0.15625-0.45703-0.31641-0.89453-0.47656l-1.4297-0.55078c-1.2852-0.49219-1.9297-1.2969-1.9297-2.4102 0-0.80469 0.30078-1.4375 0.89453-1.9062 0.59766-0.46484 1.3984-0.69531 2.3945-0.69531 0.71094 0 1.4297 0.12109 2.1523 0.35938 0.17578 0.05859 0.28906 0.125 0.34766 0.19922 0.05859 0.07422 0.08594 0.20312 0.08594 0.38672v0.60547c0 0.125-0.01953 0.21484-0.0625 0.26562-0.03906 0.05078-0.10937 0.07813-0.21484 0.07813-0.05469 0-0.19922-0.02734-0.42969-0.08594-0.72266-0.17188-1.3086-0.25781-1.7578-0.25781-0.52734 0-0.91406 0.07813-1.1641 0.23047-0.24609 0.15625-0.36719 0.39844-0.36719 0.73438 0 0.25 0.08984 0.45703 0.26562 0.60938 0.17578 0.15625 0.49609 0.32422 0.95703 0.50781l1.3242 0.51953c0.69141 0.26172 1.1875 0.57812 1.4922 0.94531 0.30469 0.36719 0.45703 0.83203 0.45703 1.3945 0 0.86328-0.3125 1.543-0.93359 2.043-0.61719 0.5-1.4805 0.75-2.582 0.75" fill="#fff"/>
<path d="m104.17 26.953c-0.90625 0-1.5781-0.21094-2.0156-0.63672-0.43359-0.42188-0.65234-1.0742-0.65234-1.9453v-4.7539h-1.1055c-0.25 0-0.37891-0.125-0.37891-0.37891v-0.5c0-0.14844 0.0312-0.25391 0.0898-0.32031 0.0547-0.0625 0.14843-0.10547 0.27343-0.12891l1.1875-0.17187 0.25782-2.082c0.0156-0.14062 0.0547-0.23828 0.12109-0.29297 0.0703-0.05859 0.17187-0.08594 0.3125-0.08594h0.89453c0.25391 0 0.37891 0.125 0.37891 0.37891v2.0312h2.1172c0.25391 0 0.37891 0.125 0.37891 0.37891v0.79297c0 0.25391-0.125 0.37891-0.37891 0.37891h-2.1172v4.6523c0 0.39062 0.0977 0.66797 0.28515 0.83203 0.19141 0.16797 0.50782 0.25 0.95703 0.25 0.26172 0 0.47657-0.01562 0.63672-0.05078 0.16016-0.03516 0.29297-0.05078 0.39453-0.05078 0.19532 0 0.29297 0.10938 0.29297 0.32812v0.61719c0 0.1875-0.0312 0.31641-0.0937 0.39063-0.0625 0.07422-0.17968 0.13281-0.35547 0.17969-0.48046 0.125-0.97265 0.1875-1.4805 0.1875" fill="#fff"/>
<path d="m110.88 25.492c1.4453 0 2.168-1.0195 2.168-3.0508 0-2.0195-0.72266-3.0312-2.168-3.0312-1.4492 0-2.1719 1.0117-2.1719 3.0312 0 2.0312 0.72266 3.0508 2.1719 3.0508zm0 1.6016c-1.332 0-2.3711-0.41016-3.1172-1.2344-0.75-0.82031-1.1211-1.957-1.1211-3.418 0-1.457 0.37109-2.5938 1.1211-3.4102 0.74609-0.81641 1.7852-1.2227 3.1172-1.2227s2.3711 0.40625 3.1172 1.2227c0.7461 0.81641 1.1172 1.9531 1.1172 3.4102 0 1.4609-0.37109 2.5977-1.1172 3.418-0.74609 0.82422-1.7852 1.2344-3.1172 1.2344" fill="#fff"/>
<path d="m116.94 26.836c-0.25391 0-0.37891-0.12891-0.37891-0.37891v-8.0117c0-0.25391 0.125-0.37891 0.37891-0.37891h0.91015c0.16407 0 0.27344 0.02344 0.33594 0.07031 0.0664 0.04297 0.10938 0.13281 0.12891 0.25781l0.20703 0.98047c0.46094-0.50391 0.89062-0.85938 1.293-1.0664 0.40234-0.20703 0.83984-0.3125 1.3086-0.3125h0.0703c0.14844 0 0.27344 0.01563 0.3711 0.04297 0.0977 0.03125 0.16406 0.07813 0.20703 0.14844 0.0391 0.07031 0.0586 0.19531 0.0586 0.37891v0.92969c0 0.24219-0.10156 0.36328-0.30859 0.36328-0.0703 0-0.16406-0.0078-0.28516-0.01953-0.12109-0.01172-0.25-0.01563-0.38672-0.01563-0.85156 0-1.6016 0.21875-2.2578 0.65234v5.9805c0 0.25-0.125 0.37891-0.37891 0.37891h-1.2734" fill="#fff"/>
<path d="m128.15 21.582v-0.14062c0-0.69922-0.15234-1.2344-0.45703-1.6016-0.30468-0.36719-0.75-0.55078-1.3359-0.55078-0.6211 0-1.125 0.20703-1.5156 0.62109-0.39062 0.41406-0.61328 0.96875-0.67187 1.6719zm-1.4492 5.5117c-1.4453 0-2.543-0.39062-3.2891-1.1719-0.74609-0.78125-1.1211-1.918-1.1211-3.4102 0-1.4805 0.36719-2.6367 1.0938-3.4648 0.73047-0.82422 1.75-1.2383 3.0586-1.2383 1.125 0 1.9883 0.30859 2.5938 0.92188 0.60156 0.61328 0.90235 1.4844 0.90235 2.6094 0 0.39062-0.0273 0.79688-0.0859 1.2227-0.0234 0.14844-0.0664 0.25-0.12891 0.30078-0.0625 0.05078-0.14453 0.07813-0.25 0.07813h-5.3047c0.0352 0.87109 0.27734 1.5117 0.73046 1.9219 0.45313 0.40625 1.1524 0.60938 2.0938 0.60938 0.6875 0 1.4141-0.10938 2.1719-0.32812 0.0898-0.01953 0.16015-0.03906 0.20703-0.05078 0.0469-0.01172 0.0859-0.01563 0.12109-0.01563 0.17188 0 0.25782 0.11328 0.25782 0.34375v0.62109c0 0.17188-0.0273 0.29297-0.0781 0.37109-0.0508 0.07422-0.16797 0.14453-0.35547 0.21484-0.76562 0.30859-1.6406 0.46484-2.6172 0.46484" fill="#fff"/>
<path d="m47.926 12c0.19922 0 0.40625-0.03906 0.62109-0.11719 0.21484-0.07812 0.42188-0.19141 0.62109-0.34375v-0.91797c-0.32422-0.07422-0.64062-0.11328-0.95312-0.11328-0.67969 0-1.0156 0.25781-1.0156 0.78125 0 0.22656 0.0625 0.40234 0.1875 0.52734 0.125 0.12109 0.30469 0.18359 0.53906 0.18359zm-0.21484 0.67578c-0.42578 0-0.76563-0.12109-1.0234-0.36719-0.25391-0.24219-0.38281-0.56641-0.38281-0.97266 0-0.44141 0.15625-0.78906 0.46875-1.0508 0.3125-0.26172 0.73437-0.39062 1.2617-0.39062 0.33594 0 0.71094 0.050781 1.1328 0.15234v-0.59375c0-0.32422-0.07422-0.55078-0.21875-0.68359-0.14844-0.13281-0.39844-0.19922-0.75391-0.19922-0.41406 0-0.81641 0.0625-1.2148 0.17969-0.13672 0.042969-0.22266 0.0625-0.26172 0.0625-0.07031 0-0.10547-0.050781-0.10547-0.16016v-0.24219c0-0.078125 0.01172-0.13672 0.03516-0.17188 0.02344-0.035156 0.07031-0.070312 0.14453-0.097656 0.18359-0.085937 0.42187-0.15234 0.70703-0.20312s0.56641-0.078125 0.84766-0.078125c0.57031 0 0.99219 0.11719 1.2617 0.35547 0.26953 0.23828 0.40625 0.59766 0.40625 1.0859v3.0781c0 0.11719-0.0625 0.17969-0.17969 0.17969h-0.38672c-0.11719 0-0.18359-0.05859-0.19922-0.17188l-0.04687-0.29688c-0.21484 0.1875-0.45312 0.32812-0.71484 0.43359-0.26172 0.10156-0.51953 0.15234-0.77734 0.15234" fill="#fff"/>
<path d="m52.48 12.559c-0.08203 0-0.14453-0.01172-0.18359-0.03516-0.03906-0.02734-0.08203-0.09375-0.12109-0.20703l-1.5938-3.9961c-0.01172-0.039062-0.02734-0.074218-0.04297-0.10937-0.01172-0.035157-0.01953-0.070313-0.01953-0.097657 0-0.078125 0.04297-0.11719 0.13281-0.11719h0.53125c0.08984 0 0.15234 0.011718 0.19141 0.035156 0.03516 0.023438 0.07422 0.09375 0.11328 0.20703l1.2344 3.5078 1.2344-3.5078c0.03906-0.11328 0.08203-0.18359 0.11719-0.20703 0.03516-0.023438 0.09766-0.035156 0.1875-0.035156h0.49609c0.08984 0 0.13672 0.039062 0.13672 0.11719 0 0.027344-0.0078 0.0625-0.02344 0.097657-0.01563 0.035156-0.03125 0.070312-0.04297 0.10937l-1.582 3.9961c-0.04297 0.11328-0.08203 0.17969-0.12109 0.20703-0.03906 0.02344-0.10156 0.03516-0.18359 0.03516h-0.46094" fill="#fff"/>
<path d="m56.871 12c0.19922 0 0.40625-0.03906 0.62109-0.11719 0.21875-0.07812 0.42187-0.19141 0.62109-0.34375v-0.91797c-0.32422-0.07422-0.64062-0.11328-0.95312-0.11328-0.67969 0-1.0156 0.25781-1.0156 0.78125 0 0.22656 0.0625 0.40234 0.1875 0.52734 0.125 0.12109 0.30469 0.18359 0.53906 0.18359zm-0.21484 0.67578c-0.42578 0-0.76562-0.12109-1.0195-0.36719-0.25781-0.24219-0.38281-0.56641-0.38281-0.97266 0-0.44141 0.15234-0.78906 0.46484-1.0508 0.3125-0.26172 0.73438-0.39062 1.2617-0.39062 0.33594 0 0.71484 0.050781 1.1328 0.15234v-0.59375c0-0.32422-0.07422-0.55078-0.21875-0.68359-0.14844-0.13281-0.39844-0.19922-0.75391-0.19922-0.41406 0-0.81641 0.0625-1.2148 0.17969-0.13672 0.042969-0.22266 0.0625-0.26172 0.0625-0.07031 0-0.10547-0.050781-0.10547-0.16016v-0.24219c0-0.078125 0.01172-0.13672 0.03516-0.17188 0.02344-0.035156 0.07031-0.070312 0.14453-0.097656 0.18359-0.085937 0.42188-0.15234 0.70703-0.20312 0.28516-0.050781 0.56641-0.078125 0.84766-0.078125 0.57031 0 0.99219 0.11719 1.2617 0.35547 0.26953 0.23828 0.40625 0.59766 0.40625 1.0859v3.0781c0 0.11719-0.0625 0.17969-0.17969 0.17969h-0.38672c-0.11719 0-0.17969-0.05859-0.19922-0.17188l-0.04687-0.29688c-0.21484 0.1875-0.45313 0.32812-0.71484 0.43359-0.26172 0.10156-0.51953 0.15234-0.77734 0.15234" fill="#fff"/>
<path d="m60.363 12.559c-0.12109 0-0.17969-0.0625-0.17969-0.17969v-4.2031c0-0.12109 0.05859-0.17969 0.17969-0.17969h0.53125c0.12109 0 0.17969 0.058594 0.17969 0.17969v4.2031c0 0.11719-0.05859 0.17969-0.17969 0.17969zm0.26953-5.375c-0.17187 0-0.30859-0.046875-0.41016-0.14844-0.097656-0.097656-0.14453-0.22656-0.14453-0.39062 0-0.16016 0.04687-0.29297 0.14453-0.39062 0.10156-0.097656 0.23828-0.14844 0.41016-0.14844 0.17578 0 0.3125 0.050781 0.41016 0.14844 0.10156 0.097656 0.14844 0.23047 0.14844 0.39062 0 0.16406-0.04687 0.29297-0.14844 0.39062-0.09766 0.10156-0.23438 0.14844-0.41016 0.14844" fill="#fff"/>
<path d="m63.289 12.602c-0.31641 0-0.5625-0.08984-0.73047-0.27344-0.16797-0.18359-0.25-0.44531-0.25-0.78906v-5.4609c0-0.12109 0.05859-0.17969 0.17969-0.17969h0.53125c0.12109 0 0.17969 0.058593 0.17969 0.17969v5.4102c0 0.13672 0.02734 0.23828 0.08594 0.30078 0.05469 0.0625 0.15234 0.09375 0.28125 0.09375 0.03906 0 0.07422-0.0039 0.11328-0.0078 0.03906-0.0078 0.07422-0.01172 0.10547-0.01172 0.05859 0 0.09766 0.01563 0.12109 0.04687 0.01953 0.03125 0.03125 0.07422 0.03125 0.13281v0.28906c0 0.0625-0.01563 0.10938-0.03906 0.14062-0.02734 0.03516-0.07422 0.05859-0.14063 0.07813-0.15234 0.03516-0.30469 0.05078-0.46875 0.05078" fill="#fff"/>
<path d="m66.07 12c0.19922 0 0.40234-0.03906 0.62109-0.11719 0.21484-0.07812 0.42188-0.19141 0.62109-0.34375v-0.91797c-0.32422-0.07422-0.64453-0.11328-0.95312-0.11328-0.67969 0-1.0195 0.25781-1.0195 0.78125 0 0.22656 0.0625 0.40234 0.19141 0.52734 0.125 0.12109 0.30469 0.18359 0.53906 0.18359zm-0.21484 0.67578c-0.42969 0-0.76953-0.12109-1.0234-0.36719-0.25391-0.24219-0.38281-0.56641-0.38281-0.97266 0-0.44141 0.15625-0.78906 0.46875-1.0508 0.3125-0.26172 0.73047-0.39062 1.2578-0.39062 0.33984 0 0.71484 0.050781 1.1367 0.15234v-0.59375c0-0.32422-0.07422-0.55078-0.22266-0.68359-0.14453-0.13281-0.39453-0.19922-0.75-0.19922-0.41406 0-0.82031 0.0625-1.2148 0.17969-0.13672 0.042969-0.22656 0.0625-0.26172 0.0625-0.07031 0-0.10547-0.050781-0.10547-0.16016v-0.24219c0-0.078125 0.01172-0.13672 0.03516-0.17188 0.02344-0.035156 0.07031-0.070312 0.14062-0.097656 0.1875-0.085937 0.42188-0.15234 0.70703-0.20312s0.57031-0.078125 0.85156-0.078125c0.57031 0 0.99219 0.11719 1.2617 0.35547 0.26953 0.23828 0.40234 0.59766 0.40234 1.0859v3.0781c0 0.11719-0.05859 0.17969-0.17969 0.17969h-0.38672c-0.11328 0-0.17969-0.05859-0.19531-0.17188l-0.04687-0.29688c-0.21484 0.1875-0.45312 0.32812-0.71484 0.43359-0.26172 0.10156-0.51953 0.15234-0.77734 0.15234" fill="#fff"/>
<path d="m71.426 11.938c0.82812 0 1.2422-0.55859 1.2422-1.6758 0-0.56641-0.10156-0.99219-0.30469-1.2695-0.19922-0.27344-0.50781-0.41016-0.92188-0.41016-0.42578 0-0.82812 0.13672-1.207 0.41016v2.5117c0.37891 0.28906 0.77734 0.43359 1.1914 0.43359zm0.20703 0.71875c-0.55078 0-1.0352-0.19141-1.4492-0.57422l-0.0625 0.29688c-0.01953 0.11719-0.08984 0.17969-0.20703 0.17969h-0.38672c-0.12109 0-0.18359-0.0625-0.18359-0.17969v-6.3008c0-0.12109 0.0625-0.17969 0.18359-0.17969h0.52734c0.12109 0 0.17969 0.058593 0.17969 0.17969v2.3477c0.45312-0.375 0.9375-0.56641 1.4609-0.56641 0.58203 0 1.0391 0.21094 1.375 0.62891 0.33594 0.42188 0.50781 0.99609 0.50781 1.7305 0 0.73828-0.17969 1.3281-0.53516 1.7734-0.35156 0.44141-0.82422 0.66406-1.4102 0.66406" fill="#fff"/>
<path d="m75.52 12.602c-0.31641 0-0.55859-0.08984-0.73047-0.27344-0.16797-0.18359-0.25-0.44531-0.25-0.78906v-5.4609c0-0.12109 0.05859-0.17969 0.17969-0.17969h0.53125c0.12109 0 0.17969 0.058593 0.17969 0.17969v5.4102c0 0.13672 0.02734 0.23828 0.08594 0.30078 0.05859 0.0625 0.15234 0.09375 0.28125 0.09375 0.03906 0 0.07422-0.0039 0.11328-0.0078 0.03906-0.0078 0.07422-0.01172 0.10547-0.01172 0.05859 0 0.09766 0.01563 0.12109 0.04687 0.01953 0.03125 0.03125 0.07422 0.03125 0.13281v0.28906c0 0.0625-0.01172 0.10938-0.03906 0.14062-0.02734 0.03516-0.07422 0.05859-0.14062 0.07813-0.14844 0.03516-0.30859 0.05078-0.46875 0.05078" fill="#fff"/>
<path d="m79.84 9.875c0.0039-0.046875 0.0078-0.125 0.0078-0.23438 1.2e-5 -0.36328-0.082019-0.64062-0.25389-0.82812-0.17188-0.18359-0.42188-0.27734-0.75391-0.27734-0.375 0-0.67188 0.11328-0.87891 0.33594-0.21094 0.22656-0.33203 0.5625-0.36328 1.0039zm-0.86328 2.8164c-0.73828 0-1.2969-0.20312-1.6758-0.60938-0.37891-0.41016-0.56641-1.0117-0.56641-1.8086 0-0.76172 0.1875-1.3555 0.56641-1.7773 0.37891-0.42578 0.90625-0.63672 1.5859-0.63672 0.57031 0 1.0078 0.16016 1.3125 0.48438 0.30859 0.32031 0.46094 0.77344 0.46094 1.3633 0 0.19141-0.01563 0.38672-0.04687 0.58203-0.01172 0.07422-0.03125 0.12109-0.05859 0.14453-0.02734 0.02344-0.07031 0.03516-0.12891 0.03516h-2.8281c0.01172 0.51562 0.14062 0.89844 0.38281 1.1445 0.24219 0.24609 0.62109 0.36719 1.1289 0.36719 0.17969 0 0.35547-0.01172 0.51953-0.03516 0.16406-0.02344 0.375-0.07422 0.625-0.15234 0.04297-0.01172 0.07813-0.02344 0.10547-0.03125 0.03125-0.0078 0.05859-0.01563 0.08203-0.01563 0.07813 0 0.11719 0.05469 0.11719 0.16406v0.25c0 0.07813-0.01172 0.13672-0.03516 0.16797-0.02344 0.03516-0.07422 0.06641-0.15234 0.10547-0.17969 0.07813-0.39453 0.14062-0.64453 0.1875-0.25 0.04687-0.5 0.07031-0.75 0.07031" fill="#fff"/>
<path d="m85.148 12c0.19922 0 0.40625-0.03906 0.62109-0.11719 0.21484-0.07812 0.42578-0.19141 0.62109-0.34375v-0.91797c-0.32422-0.074219-0.64062-0.11328-0.95312-0.11328-0.67969 0-1.0195 0.25781-1.0195 0.78125 0 0.22656 0.06641 0.40234 0.19141 0.52734 0.125 0.12109 0.30469 0.18359 0.53906 0.18359zm-0.21484 0.67578c-0.42578 0-0.76562-0.12109-1.0234-0.36719-0.25391-0.24219-0.37891-0.56641-0.37891-0.97266 0-0.44141 0.15234-0.78906 0.46484-1.0508 0.3125-0.26172 0.73438-0.39062 1.2617-0.39062 0.33594 0 0.71484 0.050781 1.1328 0.15234v-0.59375c0-0.32422-0.07422-0.55078-0.21875-0.68359-0.14844-0.13281-0.39844-0.19922-0.75391-0.19922-0.41406 0-0.81641 0.0625-1.2148 0.17969-0.13672 0.042969-0.22266 0.0625-0.25781 0.0625-0.07422 0-0.10937-0.050781-0.10937-0.16016v-0.24219c0-0.078125 0.01172-0.13672 0.03516-0.17188 0.02344-0.035156 0.07422-0.070312 0.14453-0.097656 0.1875-0.085937 0.42188-0.15234 0.70703-0.20312s0.56641-0.078125 0.85156-0.078125c0.57031 0 0.98828 0.11719 1.2578 0.35547 0.26953 0.23828 0.40625 0.59766 0.40625 1.0859v3.0781c0 0.11719-0.0625 0.17969-0.17969 0.17969h-0.39062c-0.11328 0-0.17969-0.05859-0.19531-0.17188l-0.04687-0.29688c-0.21484 0.1875-0.45312 0.32812-0.71484 0.43359-0.25781 0.10156-0.51953 0.15234-0.77734 0.15234" fill="#fff"/>
<path d="m89.992 12.621c-0.85156 0-1.2773-0.42578-1.2773-1.2773v-2.6445h-0.64844c-0.12109 0-0.17969-0.0625-0.17969-0.18359v-0.22266c0-0.0625 0.01172-0.10547 0.03906-0.13672 0.02734-0.027344 0.08203-0.050781 0.16016-0.0625l0.65625-0.082031 0.11328-1.1133c0.01563-0.12109 0.07813-0.17969 0.19141-0.17969h0.37891c0.11719 0 0.17969 0.058594 0.17969 0.17969v1.0977h1.168c0.12109 0 0.18359 0.058594 0.18359 0.17969v0.33984c0 0.12109-0.0625 0.18359-0.18359 0.18359h-1.168v2.5977c0 0.22266 0.05078 0.37891 0.14844 0.46875 0.09766 0.08984 0.26953 0.13672 0.50781 0.13672 0.11328 0 0.25391-0.01563 0.42188-0.04687 0.08984-0.01563 0.15234-0.02734 0.17969-0.02734 0.05078 0 0.08203 0.01563 0.10156 0.04297 0.01563 0.02734 0.02734 0.07031 0.02734 0.12891v0.24219c0 0.07812-0.01563 0.13672-0.03516 0.17578-0.02734 0.03906-0.07422 0.07031-0.14844 0.09375-0.23047 0.07422-0.50391 0.10938-0.81641 0.10938" fill="#fff"/>
</g>
</svg>
