<?xml version="1.0" encoding="UTF-8"?>
<svg width="512" height="512" version="1.1" viewBox="0 0 135.46666 135.46666" xmlns="http://www.w3.org/2000/svg" xmlns:cc="http://creativecommons.org/ns#" xmlns:dc="http://purl.org/dc/elements/1.1/" xmlns:rdf="http://www.w3.org/1999/02/22-rdf-syntax-ns#" xmlns:xlink="http://www.w3.org/1999/xlink">
<defs>
<linearGradient id="e" x1="70.811" x2="70.811" y1="14.961" y2="116.76" gradientTransform="matrix(1.1199 0 0 1.1199 -8.4071 -8.7687)" gradientUnits="userSpaceOnUse">
<stop stop-color="#0db0fc" offset="0"/>
<stop stop-color="#0486c1" offset="1"/>
</linearGradient>
<mask id="b" maskUnits="userSpaceOnUse">
<path d="m51.213 33.99h34.201c10.864 0 18.991 8.4226 19.61 18.847l-0.0246 11.049v3.8654l1.7093 13.453c1.3163 10.359-10.595 15.646-21.459 15.653l-33.838 0.02199c-10.864 0.007009-22.766-5.7678-21.961-16.18l1.3506-12.948v-3.8654l0.04028-11.11c0.03786-10.443 9.5071-18.785 20.371-18.785z" fill="#f9f9f9"/>
</mask>
<linearGradient id="d" x1="40.806" x2="96.607" y1="56.706" y2="106.15" gradientUnits="userSpaceOnUse">
<stop stop-color="#fff" offset="0"/>
<stop stop-color="#d8d8d8" offset="1"/>
</linearGradient>
<linearGradient id="c" x1="45.859" x2="108.82" y1="33.654" y2="67.955" gradientTransform="matrix(1.3226 0 0 1.3226 -22.594 -16.651)" gradientUnits="userSpaceOnUse">
<stop stop-color="#f00" offset="0"/>
<stop stop-color="#c40000" offset="1"/>
</linearGradient>
<filter id="f" color-interpolation-filters="sRGB">
<feFlood flood-color="rgb(0,0,0)" flood-opacity=".49804" result="flood"/>
<feComposite in="flood" in2="SourceGraphic" operator="in" result="composite1"/>
<feGaussianBlur in="composite1" result="blur" stdDeviation="2.2"/>
<feOffset dx="0" dy="1.4" result="offset"/>
<feComposite in="SourceGraphic" in2="offset" result="composite2"/>
</filter>
<mask id="a" maskUnits="userSpaceOnUse">
<rect x="-123.09" y="-19.099" width="90.77" height="89.259" ry="6.3137" fill="#039be2"/>
</mask>
</defs>
<metadata>
<rdf:RDF>
<cc:Work rdf:about="">
<dc:format>image/svg+xml</dc:format>
<dc:type rdf:resource="http://purl.org/dc/dcmitype/StillImage"/>
<dc:title/>
</cc:Work>
</rdf:RDF>
</metadata>
<g>
<rect x="7.6531" y="7.6206" width="120.06" height="119.92" ry="8.4827" fill="url(#e)"/>
<rect x="7.6531" y="8.5291" width="120.06" height="118.06" ry="8.3507" fill="#039be2"/>
</g>
<g>
<g transform="matrix(1.3253 0 0 1.3313 170.37 33.226)" mask="url(#a)" opacity=".223">
<g opacity="1" stroke-opacity=".28235" stroke-width=".99549">
<path d="m-93.159-3.4122h32.244l70.711 70.711h-32.244z"/>
<path d="m-60.915-3.4122c5.2646 0 9.8474 2.046 13.138 5.3363l70.711 70.711c-3.2903-3.2903-7.8732-5.3363-13.138-5.3363z"/>
<path d="m-47.777 1.9241c3.1111 3.1111 5.0666 7.3345 5.3502 11.993l70.711 70.711c-0.28366-4.6581-2.2392-8.8816-5.3502-11.993z"/>
<path d="m-42.427 13.917-0.0233 10.159 70.711 70.711 0.0233-10.159z"/>
<path d="m-42.45 24.076v3.5541l70.711 70.711v-3.5541z"/>
<path d="m-42.45 27.63 1.6114 12.369 70.711 70.711-1.6114-12.369z"/>
<path d="m-40.839 39.999c1.2409 9.525-9.9884 14.386-20.231 14.392l70.711 70.711c10.242-7e-3 21.472-4.8675 20.231-14.392z"/>
<path d="m-61.07 54.392-31.901 0.0203 70.711 70.711 31.901-0.0203z"/>
<path d="m-92.971 54.412c-6.4777 0.0038-13.346-2.1184-17.329-6.1009l70.711 70.711c3.9825 3.9825 10.851 6.1047 17.329 6.1009z"/>
<path d="m-110.3 48.311c-2.3145-2.3145-3.6541-5.2573-3.3755-8.7763l70.711 70.711c-0.27865 3.519 1.061 6.4618 3.3755 8.7763z"/>
<path d="m-113.68 39.535 1.2733-11.905 70.711 70.711-1.2733 11.905z"/>
<path d="m-112.4 27.63v-3.5541l70.711 70.711v3.5541z"/>
<path d="m-112.4 24.076 0.038-10.216 70.711 70.711-0.038 10.216z"/>
<path d="m-112.36 13.86c0.0357-9.6024 8.963-17.272 19.205-17.272l70.711 70.711c-10.242 0-19.17 7.67-19.205 17.272z"/>
<path d="m-92.729-3.4122h31.383l70.711 70.711h-31.383z"/>
<path d="m-61.345-3.4122c5.2403 0 9.9699 2.1094 13.389 5.5288l70.711 70.711c-3.4195-3.4195-8.149-5.5288-13.389-5.5288z"/>
<path d="m-47.956 2.1166c3.4195 3.4195 5.5288 8.149 5.5288 13.389l70.711 70.711c0-5.2403-2.1094-9.9699-5.5288-13.389z"/>
<path d="m-42.427 15.506v27.051l70.711 70.711v-27.051z"/>
<path d="m-42.427 42.557c0 10.481-8.4375 18.918-18.918 18.918l70.711 70.711c10.481 0 18.918-8.4375 18.918-18.918z"/>
<path d="m-61.345 61.475h-31.383l70.711 70.711h31.383z"/>
<path d="m-92.729 61.475c-5.2403 0-9.9699-2.1094-13.389-5.5288l70.711 70.711c3.4195 3.4195 8.149 5.5288 13.389 5.5288z"/>
<path d="m-106.12 55.946c-3.4195-3.4195-5.5288-8.149-5.5288-13.389l70.711 70.711c0 5.2403 2.1094 9.9699 5.5288 13.389z"/>
<path d="m-111.65 42.557v-27.051l70.711 70.711v27.051z"/>
<path d="m-111.65 15.506c0-10.481 8.4375-18.918 18.918-18.918l70.711 70.711c-10.481 0-18.918 8.4375-18.918 18.918z"/>
</g>
<path d="m-93.159-3.4122h32.244c10.242 0 17.904 7.7443 18.488 17.329l-0.0233 10.159v3.5541l1.6114 12.369c1.2409 9.525-9.9884 14.386-20.231 14.392l-31.901 0.0203c-10.242 6e-3 -21.463-5.3033-20.704-14.877l1.2733-11.905v-3.5541l0.038-10.216c0.0357-9.6024 8.963-17.272 19.205-17.272zm0.43025 2.4e-6h31.383c10.481 0 18.918 8.4375 18.918 18.918v27.051c0 10.481-8.4375 18.918-18.918 18.918h-31.383c-10.481 0-18.918-8.4375-18.918-18.918v-27.051c0-10.481 8.4375-18.918 18.918-18.918z" opacity="1"/>
</g>
</g>
<g>
<g transform="matrix(1.3226 0 0 1.3226 122.83 35.814)" fill="#fff" filter="url(#f)">
<g transform="matrix(.64713 0 0 .64713 -84.722 -59.903)" fill="#fff">
<g transform="translate(-1.6354)" fill="#fff" aria-label="↓">
<path d="m68.58 99.368h0.13711l9.1179-9.3579-8.88-0.0011 0.85897 5.4513v-15.014h-2.3309v15.014l0.42679-5.4513-8.4136 0.0011zm15.633-9.4548a15.703 15.703 0 0 1 -15.703 15.703 15.703 15.703 0 0 1 -15.703 -15.703 15.703 15.703 0 0 1 15.703 -15.703 15.703 15.703 0 0 1 15.703 15.703m-40.788-7.0243h49.826c15.827 0 27.667 11.967 28.569 26.778l-0.036 15.698v5.4922l2.4902 19.114c1.9176 14.719-15.435 22.231-31.262 22.241l-49.297 0.0313c-15.827 0.01-33.166-8.1952-31.994-22.99l1.9676-18.396v-5.4921l0.05871-15.786c0.05518-14.838 13.85-26.691 29.678-26.691zm0.66486 2e-6h48.497c16.196 0 29.234 13.038 29.234 29.234v41.802c0 16.196-13.038 29.234-29.234 29.234h-48.497c-16.196 0-29.234-13.038-29.234-29.234v-41.802c0-16.196 13.038-29.234 29.234-29.234z" fill="#fff" stroke-width=".85695"/>
</g>
</g>
</g>
<rect x="22.092" y="27.53" width="91.552" height="85.822" ry="25.022" fill="#4d4d4d" stroke="#484848" stroke-width=".13226"/>
<path d="m46.545 27.53h42.647c13.547 0 23.681 10.243 24.453 22.92l-0.0308 13.436v4.7008l1.8926 16.398c1.4567 12.621-12.972 18.99-26.519 18.998l-42.194 0.0267c-13.547 9e-3 -28.367-6.8303-27.187-19.478l1.4872-15.945v-4.7008l0.05023-13.511c0.047248-12.7 11.855-22.845 25.401-22.845z" fill="url(#c)"/>
<rect transform="matrix(1.2469 0 0 1.4741 -17.315 -32.663)" x="23.039" y="56.334" width="93.401" height="47.409" ry="0" fill="url(#d)" mask="url(#b)"/>
<g transform="matrix(1.4893 0 0 1.4893 -32.873 -31.224)" fill="#f00" stroke-width=".73523" aria-label="31">
<path d="m59.521 87.938c3.882 0 7.2347-1.941 7.2347-5.4701 0-2.3527-1.4705-3.8232-3.5879-4.4702v-0.11764c1.9998-0.88228 2.9998-2.2351 2.9998-4.0291 0-3.3821-2.6468-5.2643-6.7642-5.2643-2.2939 0-4.2349 0.88228-6.0583 2.4116l2.5292 3.0586c1.1764-0.99992 2.0587-1.5293 3.2938-1.5293 1.2646 0 1.941 0.58819 1.941 1.7057 0 1.294-0.9411 2.1175-4.0585 2.1175v3.5291c3.9114 0 4.6467 0.82346 4.6467 2.2351 0 1.1764-1.0587 1.7646-2.7057 1.7646-1.3234 0-2.6763-0.70582-3.8232-1.7646l-2.2939 3.1762c1.4116 1.6469 3.6174 2.6468 6.6465 2.6468z"/>
<path d="m70.08 87.585h12.411v-4.0585h-3.3527v-14.587h-3.7056c-1.4116 0.88228-2.7645 1.4116-4.882 1.8234v3.1174h3.5291v9.6463h-3.9997z"/>
</g>
<g stroke-width=".46632" aria-label="OCTOBER">
<path d="m48.664 63.407c1.8572 0 3.1235-1.3507 3.1235-3.5983 0-2.2371-1.2663-3.535-3.1235-3.535s-3.1235 1.2874-3.1235 3.535 1.2663 3.5983 3.1235 3.5983zm0-1.3401c-0.93915 0-1.5301-0.87583-1.5301-2.2582 0-1.3718 0.59092-2.1949 1.5301-2.1949s1.5301 0.82307 1.5301 2.1949c0 1.3823-0.59092 2.2582-1.5301 2.2582z"/>
<path d="m55.966 63.407c0.89694 0 1.6567-0.34822 2.2265-1.013l-0.82307-0.9708c-0.33767 0.35878-0.78086 0.64368-1.3401 0.64368-1.013 0-1.6672-0.82307-1.6672-2.2371 0-1.3823 0.74921-2.216 1.6884-2.216 0.49595 0 0.86528 0.23215 1.2135 0.54872l0.82307-0.99191c-0.4643-0.47485-1.1818-0.89694-2.0682-0.89694-1.7411 0-3.2501 1.3296-3.2501 3.6089 0 2.3109 1.4562 3.5244 3.1973 3.5244z"/>
<path d="m60.468 63.281h1.5617v-5.5716h1.8888v-1.3085h-5.3394v1.3085h1.8888z"/>
<path d="m67.523 63.407c1.8572 0 3.1235-1.3507 3.1235-3.5983 0-2.2371-1.2663-3.535-3.1235-3.535-1.8572 0-3.1235 1.2874-3.1235 3.535s1.2663 3.5983 3.1235 3.5983zm0-1.3401c-0.93915 0-1.5301-0.87583-1.5301-2.2582 0-1.3718 0.59092-2.1949 1.5301-2.1949s1.5301 0.82307 1.5301 2.1949c0 1.3823-0.59092 2.2582-1.5301 2.2582z"/>
<path d="m71.954 63.281h2.5536c1.4879 0 2.6697-0.62258 2.6697-2.026 0-0.91804-0.53816-1.4351-1.2346-1.6145v-0.04221c0.55927-0.21104 0.89694-0.87583 0.89694-1.4879 0-1.319-1.108-1.7095-2.5325-1.7095h-2.3531zm1.5512-4.1259v-1.5512h0.73866c0.7281 0 1.0763 0.20049 1.0763 0.73865 0 0.49595-0.32712 0.81252-1.0869 0.81252zm0 2.923v-1.7728h0.87583c0.85473 0 1.2768 0.2427 1.2768 0.84418 0 0.63313-0.43264 0.9286-1.2768 0.9286z"/>
<path d="m78.357 63.281h4.4108v-1.3085h-2.8596v-1.5828h2.3426v-1.2979h-2.3426v-1.3823h2.7541v-1.3085h-4.3053z"/>
<path d="m84.163 63.281h1.5512v-2.4798h0.85473l1.319 2.4798h1.7411l-1.5617-2.7541c0.73866-0.32712 1.2241-0.9708 1.2241-1.9838 0-1.6356-1.1924-2.1421-2.6486-2.1421h-2.4798zm1.5512-3.7144v-1.9311h0.80197c0.81252 0 1.2557 0.23215 1.2557 0.90749 0 0.67534-0.44319 1.0236-1.2557 1.0236z"/>
</g>
<circle cx="53.311" cy="42.776" r="0" fill="#f9f9f9"/>
<circle cx="84.315" cy="42.523" r="0" fill="#f9f9f9"/>
<g transform="matrix(.85591 0 0 .85591 10.776 -43.415)">
<circle cx="66.875" cy="89.913" r="15.703" fill="#fff"/>
<g transform="translate(-1.6354)" aria-label="↓">
<path d="m68.58 99.368h0.13711l9.1179-9.3579-8.88-0.0011 0.85897 5.4513v-15.014h-2.3309v15.014l0.42679-5.4513-8.4136 0.0011z" stroke-width=".85695"/>
</g>
</g>
<g transform="translate(-23.438 -22.392)" fill="#f9f9f9">
<circle cx="-92.121" cy="5.9604" r="0"/>
<circle cx="-61.117" cy="5.7066" r="0"/>
</g>
</g>
</svg>
